<?xml version="1.0" standalone="no"?>
<svg xmlns="http://www.w3.org/2000/svg" viewBox="0 0 101.76 29" width="101.76" height="29"><g fill="#ff4a7c" color="#ff4a7c" transform="translate(0, 0) scale(0.5576924)"><svg width="52.0" height="52.0" x="0.0" y="0.0" viewBox="0 0 52 52"><path fill="currentColor" fill-rule="evenodd" d="M41.425 44.023v-3.275l3.389-3.677v3.371a24.18 24.18 0 0 1-3.389 3.581zM6.719 40.442v-3.359l3.389 3.677v3.263a24.175 24.175 0 0 1-3.389-3.581zm5.141.481l3.331-3.766v3.859l-3.33 3.82V40.923zM6.72 30.136l3.388 3.493v4.544l-3.389-3.676v-4.361zm3.388.975l-3.389-3.493v-4.13l3.389 3.68v3.943zm1.752 2.523l3.331-3.433v4.31l-3.33 3.766v-4.643zm3.331-10.146v4.196l-3.33 3.433V27.11l3.33-3.622zm6.369 4.514l3.33 3.614v4.141l-3.33-3.797v-3.958zm3.33-6.036l-3.33-3.433v-4.101l3.33 3.622v3.912zm5.083-3.383l-3.33 3.434v-4.021l3.33-3.623v4.21zm-3.33 13.234l.002.003 3.328-3.764V31.9l-3.33 3.798v-3.882zm-1.753-2.788l-3.33-3.613V21.05l3.33 3.433v4.545zm1.752-4.495l3.33-3.433v4.308l-3.33 3.768v-4.643zm14.783 9.086l3.389-3.493v4.358l-3.389 3.677V33.62zm-1.753-2.554l-3.33-3.433v-4.145l3.33 3.622v3.956zm0 7.234l-3.33-3.768v-4.381l3.33 3.432V38.3zm5.142-14.812v4.121l-3.389 3.493V27.17l3.389-3.681zm-5.142 21.348l-3.33-3.82v-3.838l3.329 3.767.001-.001v3.892zM25.766 1.753c13.263 0 24.014 10.809 24.014 24.072a23.9 23.9 0 0 1-3.213 11.995V19.047l-5.987 6.444-5.991-6.502v22.728l3.933 4.45a23.876 23.876 0 0 1-11.88 3.65V38.384l5.083-5.783V9.932l-5.96 6.47-5.958-6.47v22.67l5.083 5.85v11.364a23.878 23.878 0 0 1-11.88-3.649l3.934-4.45V18.989l-5.99 6.502-5.987-6.444V37.82a23.895 23.895 0 0 1-3.214-11.995c0-13.263 10.75-24.072 24.013-24.072zm0-1.753C11.568 0 0 11.627 0 25.825 0 40.023 11.568 51.59 25.766 51.59c14.198 0 25.767-11.627 25.767-25.825C51.533 11.57 39.964 0 25.766 0z"></path></svg></g><line x1="41" y1="1" x2="41" y2="28" stroke="#0c113e" stroke-linecap="round"></line><path fill="#0c113e" fill-rule="nonzero" d="M2.16 16.27L2.16 3.31Q2.16 2.09 1.82 1.50Q1.49 0.91 0.48 0.91L0.48 0.91L0 0.91L0 0.43L10.22 0.43Q12.26 0.43 12.26 2.35L12.26 2.35L12.26 4.15L11.78 4.15Q11.78 1.39 8.78 1.39L8.78 1.39L4.32 1.39L4.32 7.63L10.80 7.63L10.80 8.59L4.32 8.59L4.32 15.31L8.52 15.31Q10.18 15.31 11.11 14.71Q12.05 14.11 12.60 12.67L12.60 12.67L13.08 12.79L12.24 15.07Q11.81 16.27 10.44 16.27L10.44 16.27L2.16 16.27ZM16.32 16.27L16.32 3.31Q16.32 2.09 15.98 1.50Q15.65 0.91 14.64 0.91L14.64 0.91L14.16 0.91L14.16 0.43L16.32 0.43Q17.21 0.43 17.65 0.66Q18.10 0.89 18.29 1.49Q18.48 2.09 18.48 3.31L18.48 3.31L18.48 15.31L27 15.31L27 16.27L16.32 16.27ZM31.13 16.27L31.13 9.72L27.05 3.55Q26.42 2.66 25.99 2.16Q25.56 1.66 24.97 1.31Q24.38 0.96 23.57 0.91L23.57 0.91L23.57 0.43L25.73 0.43Q26.93 0.43 27.74 1.14Q28.56 1.85 29.33 3.07L29.33 3.07L32.81 8.47L37.82 0.43L38.90 0.43L33.29 9.55L33.29 16.27L31.13 16.27ZM45.77 16.68Q44.45 16.68 43.18 16.32Q41.90 15.96 41.10 15.29Q40.30 14.62 40.30 13.75L40.30 13.75L40.30 11.18L40.73 11.18Q41.14 13.58 42.31 14.65Q43.49 15.72 45.55 15.72L45.55 15.72Q46.85 15.72 47.77 15.07Q48.70 14.42 48.70 13.27L48.70 13.27Q48.70 12.26 48.07 11.52Q47.45 10.78 46.06 9.96L46.06 9.96L43.10 8.21Q41.57 7.30 40.93 6.36Q40.30 5.42 40.30 4.08L40.30 4.08Q40.30 2.23 41.58 1.12Q42.86 0 44.95 0L44.95 0Q46.18 0 47.38 0.35Q48.58 0.70 49.36 1.36Q50.14 2.02 50.14 2.88L50.14 2.88L50.14 5.45L49.70 5.45Q49.30 3.05 48.16 2.00Q47.02 0.96 44.95 0.96L44.95 0.96Q43.85 0.96 43.01 1.63Q42.17 2.30 42.17 3.38L42.17 3.38Q42.17 4.37 42.78 5.02Q43.39 5.66 44.83 6.53L44.83 6.53L47.78 8.28Q49.42 9.26 50.09 10.10Q50.76 10.94 50.76 12.24L50.76 12.24Q50.76 14.26 49.42 15.47Q48.07 16.68 45.77 16.68L45.77 16.68Z" transform="translate(51, 6.364)"></path></svg>